<?xml version="1.0" encoding="UTF-8" standalone="no"?>
<svg width="910px" height="1085px" viewBox="0 0 910 1085" version="1.1" xmlns="http://www.w3.org/2000/svg" xmlns:xlink="http://www.w3.org/1999/xlink">
    <!-- Generator: Sketch 49.3 (51167) - http://www.bohemiancoding.com/sketch -->
    <title>SculpLogo@0.5x</title>
    <desc>Created with Sketch.</desc>
    <defs>
        <radialGradient cx="50%" cy="50%" fx="50%" fy="50%" r="49.8245307%" gradientTransform="translate(0.500000,0.500000),scale(0.992798,1.000000),rotate(-164.175386),translate(-0.500000,-0.500000)" id="radialGradient-1">
            <stop stop-color="#FFDBB1" offset="0%"></stop>
            <stop stop-color="#FF5100" offset="100%"></stop>
        </radialGradient>
        <linearGradient x1="64.1309332%" y1="9.3524157%" x2="34.752752%" y2="61.798832%" id="linearGradient-2">
            <stop stop-color="#C14408" offset="0%"></stop>
            <stop stop-color="#873003" offset="100%"></stop>
        </linearGradient>
        <linearGradient x1="34.752752%" y1="61.798832%" x2="64.1309332%" y2="9.3524157%" id="linearGradient-3">
            <stop stop-color="#C14408" offset="0%"></stop>
            <stop stop-color="#873003" offset="100%"></stop>
        </linearGradient>
        <radialGradient cx="51.0179919%" cy="53.7786011%" fx="51.0179919%" fy="53.7786011%" r="53.1803918%" gradientTransform="translate(0.510180,0.537786),scale(0.943766,1.000000),rotate(147.627884),translate(-0.510180,-0.537786)" id="radialGradient-4">
            <stop stop-color="#F9F9F9" offset="0%"></stop>
            <stop stop-color="#838383" offset="100%"></stop>
        </radialGradient>
    </defs>
    <g id="Page-1" stroke="none" stroke-width="1" fill="none" fill-rule="evenodd">
        <g id="SculpLogo" transform="translate(-10.000000, 0.000000)">
            <g transform="translate(60.000000, 0.000000)" fill-rule="nonzero">
                <path d="M216.34,40.32 C271.71,12.4 334.16,-0.17 396,0.88 C439.97,1.55 483.78,8.54 525.96,20.89 C544.94,26.51 563.86,32.91 581.18,42.64 C570.28,38.31 559.34,33.92 547.88,31.25 C523.77,25.16 498.85,23.02 474.05,22.51 C449.91,22.35 425.74,23.79 401.86,27.37 C372.97,31.71 344.77,39.92 317.59,50.52 C289.83,61.49 262.6,74.58 238.84,92.85 C213.68,112.25 191.53,137 180.09,167.02 C173.28,181.93 169.98,198.75 172.41,215.07 C174.64,232.23 182.47,248.33 193.2,261.77 C195.85,265.06 198.56,268.37 201.99,270.9 C199.63,265.75 195.8,261.41 193.87,256.04 C201.18,271.14 214.81,282.38 229.96,289.1 C243.87,295.28 258.88,298.93 273.99,300.54 C301,301.02 328.47,298.27 354,289.04 C371.58,281.77 389.65,275.79 407.6,269.5 C426.32,263.03 445.13,256.83 464,250.82 C468.85,248.89 474.22,249.17 479.03,247.08 C517.24,235.56 557.11,229.15 597.04,229.19 C632.92,229.42 669.49,235.18 701.9,251.17 C726.63,263.84 748.7,281.73 765.92,303.57 C784.2,327.55 796,355.89 803.39,384.98 C806.9,398 808,411.5 808.9,424.91 C811.09,462.03 806.35,499.54 795.01,534.95 C779.99,582.09 753.81,625.2 721.27,662.29 C701.79,684.47 680.12,704.78 656.41,722.39 C649.65,727.48 642.46,731.94 635.17,736.24 C588.69,764.03 538.02,785.4 484.85,796.29 C453.08,802.63 420.31,805.84 388.03,801.86 C353.32,799.35 318.72,794.23 285.08,785.22 C252.34,776.34 220.17,764 191.67,745.37 C186.38,741.71 180.89,738.21 176.32,733.65 C186.36,737.91 196.09,742.94 206.4,746.58 C242.02,759.91 280.17,765.41 318.07,766.02 C360.18,766.09 402.45,760.73 442.91,748.87 C451.49,746.56 459.47,742.59 467.91,739.85 C509.8,724.51 547.94,699.81 580.8,669.8 C593.85,657.14 607.3,644.35 616.24,628.31 C632.98,600.54 644.97,568.8 644.4,535.99 C643.85,517.43 638.91,499.11 630.14,482.75 C621.68,464.24 608.72,447.71 592.21,435.74 C567.71,417.82 536.93,410.79 507.01,409.98 C463.97,409 421.29,418.48 380.93,432.88 C344.82,446.87 308.39,460.13 271.33,471.4 C251.54,477.32 231.58,482.89 211.18,486.28 C203.21,487.92 195.01,487.48 187.02,488.89 C150.68,495.91 111.87,491.26 78.91,474.12 C68.93,469.09 59.75,462.69 50.87,455.95 C38.21,442.51 25.84,428.55 16.78,412.35 C4.33,390.13 -0.47,364.23 1.09,338.94 C3.22,302.99 14.66,268.32 28.42,235.3 C54.1,186.74 86.41,141.28 126.49,103.53 C153.22,78.32 183.46,56.77 216.34,40.32 Z" id="Shape" fill="url(#radialGradient-1)"></path>
                <path d="M401.86,27.37 C425.74,23.79 449.91,22.35 474.05,22.51 C498.85,23.02 523.77,25.16 547.88,31.25 C559.34,33.92 570.28,38.31 581.18,42.64 C611.09,57.52 639.34,77.41 659.29,104.57 C667.58,115.94 674.32,128.54 678.37,142.05 C674.96,139.33 672.35,135.79 669.17,132.84 C651.97,115.19 632.93,99.41 612.74,85.3 C582.18,61.48 543.93,49.92 505.98,44.93 C492.05,43.15 478.02,42.01 463.97,41.92 C442.59,40.6 421.12,42.59 400.03,46.1 C341.74,56 285.6,81.69 242.29,122.3 C228.44,134.91 215.92,149.08 206.01,165.01 C195.84,181.34 188.08,199.71 186.84,219.08 C185.67,231.78 188.68,244.5 193.87,256.04 C195.8,261.41 199.63,265.75 201.99,270.9 C198.56,268.37 195.85,265.06 193.2,261.77 C182.47,248.33 174.64,232.23 172.41,215.07 C169.98,198.75 173.28,181.93 180.09,167.02 C191.53,137 213.68,112.25 238.84,92.85 C262.6,74.58 289.83,61.49 317.59,50.52 C344.77,39.92 372.97,31.71 401.86,27.37 Z" id="Shape" fill="url(#linearGradient-2)"></path>
                <path d="M380.93,432.88 C421.29,418.48 463.97,409 507.01,409.98 C536.93,410.79 567.71,417.82 592.21,435.74 C608.72,447.71 621.68,464.24 630.14,482.75 C638.91,499.11 643.85,517.43 644.4,535.99 C644.97,568.8 632.98,600.54 616.24,628.31 C607.3,644.35 593.85,657.14 580.8,669.8 C547.94,699.81 509.8,724.51 467.91,739.85 C459.47,742.59 451.49,746.56 442.91,748.87 C402.45,760.73 360.18,766.09 318.07,766.02 C280.17,765.41 242.02,759.91 206.4,746.58 C196.09,742.94 186.36,737.91 176.32,733.65 C168.59,727.58 159.55,723.35 151.98,717 C132.29,702.01 117.71,679.67 114.6,654.86 C123.6,663.65 132.07,673.05 141.55,681.37 C148.46,687.83 155.99,693.57 162.98,699.94 C173.85,709.81 187.01,716.62 200.01,723.24 C237.08,740.64 278.25,747.84 318.99,748.52 C350.92,748.65 382.79,744.29 413.79,736.73 C446.54,728.3 478.07,715.24 507.36,698.38 C523.97,688.78 540.02,678.13 554.65,665.68 C562.97,658.36 571.63,651.33 578.95,642.97 C591.16,629.77 601.83,615.04 609.86,598.92 C616.68,585.73 620.88,571.37 624.15,556.94 C625.61,551.07 625.04,544.98 624.56,539.03 C622.92,516.63 617.09,493.76 603.43,475.55 C594.92,463.97 583.18,455.29 570.93,448.03 C546.74,434.25 518.59,429.5 491.1,428.6 C483.74,429.25 476.33,428.64 468.99,429.58 C452.46,431.46 436.37,435.94 420.46,440.63 C397.82,447.52 375.63,455.82 353.73,464.76 C347.09,467.39 340.63,470.43 333.91,472.84 C303.84,483.71 273.51,493.87 242.9,503.11 C227.01,507.6 210.56,510.2 194.05,510.62 C183.98,511.57 173.88,510.26 163.87,509.22 C144.74,507.17 125.69,503.29 107.78,496.15 C86.04,487.38 66.87,472.96 50.87,455.95 C59.75,462.69 68.93,469.09 78.91,474.12 C111.87,491.26 150.68,495.91 187.02,488.89 C195.01,487.48 203.21,487.92 211.18,486.28 C231.58,482.89 251.54,477.32 271.33,471.4 C308.39,460.13 344.82,446.87 380.93,432.88 Z" id="Shape" fill="url(#linearGradient-3)"></path>
                <path d="M400.03,46.1 C421.12,42.59 442.59,40.6 463.97,41.92 C478.02,42.01 492.05,43.15 505.98,44.93 C543.93,49.92 582.18,61.48 612.74,85.3 C632.93,99.41 651.97,115.19 669.17,132.84 C672.35,135.79 674.96,139.33 678.37,142.05 C719.43,186.29 749.35,240.76 765.28,298.97 C765.73,300.46 765.79,302.01 765.92,303.57 C748.7,281.73 726.63,263.84 701.9,251.17 C669.49,235.18 632.92,229.42 597.04,229.19 C557.11,229.15 517.24,235.56 479.03,247.08 C474.22,249.17 468.85,248.89 464,250.82 C445.13,256.83 426.32,263.03 407.6,269.5 C389.65,275.79 371.58,281.77 354,289.04 C328.47,298.27 301,301.02 273.99,300.54 C258.88,298.93 243.87,295.28 229.96,289.1 C214.81,282.38 201.18,271.14 193.87,256.04 C188.68,244.5 185.67,231.78 186.84,219.08 C188.08,199.71 195.84,181.34 206.01,165.01 C215.92,149.08 228.44,134.91 242.29,122.3 C285.6,81.69 341.74,56 400.03,46.1 Z M16.78,412.35 C25.84,428.55 38.21,442.51 50.87,455.95 C66.87,472.96 86.04,487.38 107.78,496.15 C125.69,503.29 144.74,507.17 163.87,509.22 C173.88,510.26 183.98,511.57 194.05,510.62 C210.56,510.2 227.01,507.6 242.9,503.11 C273.51,493.87 303.84,483.71 333.91,472.84 C340.63,470.43 347.09,467.39 353.73,464.76 C375.63,455.82 397.82,447.52 420.46,440.63 C436.37,435.94 452.46,431.46 468.99,429.58 C476.33,428.64 483.74,429.25 491.1,428.6 C518.59,429.5 546.74,434.25 570.93,448.03 C583.18,455.29 594.92,463.97 603.43,475.55 C617.09,493.76 622.92,516.63 624.56,539.03 C625.04,544.98 625.61,551.07 624.15,556.94 C620.88,571.37 616.68,585.73 609.86,598.92 C601.83,615.04 591.16,629.77 578.95,642.97 C571.63,651.33 562.97,658.36 554.65,665.68 C540.02,678.13 523.97,688.78 507.36,698.38 C478.07,715.24 446.54,728.3 413.79,736.73 C382.79,744.29 350.92,748.65 318.99,748.52 C278.25,747.84 237.08,740.64 200.01,723.24 C187.01,716.62 173.85,709.81 162.98,699.94 C155.99,693.57 148.46,687.83 141.55,681.37 C132.07,673.05 123.6,663.65 114.6,654.86 C67.1,602.54 34.68,536.67 22.34,467.08 C19.22,449 16.96,430.69 16.78,412.35 Z" id="Combined-Shape" fill="url(#radialGradient-4)"></path>
            </g>
            <text id="SCULP-3D" font-family="Futura-Medium, Futura" font-size="200" font-weight="400" letter-spacing="-0.16065973">
                <tspan x="0.451484405" y="1082" fill="#838383">SCULP</tspan>
                <tspan x="600.820061" y="1082" letter-spacing="-0.214212969" fill="#1DA1F2"> </tspan>
                <tspan x="662.324598" y="1082" letter-spacing="-0.214212969" fill="#FF6317">3D</tspan>
            </text>
        </g>
    </g>
</svg>